<?xml version="1.0" encoding="UTF-8" standalone="no"?>
<!-- Created with Inkscape (http://www.inkscape.org/) -->

<svg
   xmlns:dc="http://purl.org/dc/elements/1.1/"
   xmlns:cc="http://creativecommons.org/ns#"
   xmlns:rdf="http://www.w3.org/1999/02/22-rdf-syntax-ns#"
   xmlns:svg="http://www.w3.org/2000/svg"
   xmlns="http://www.w3.org/2000/svg"
   xmlns:sodipodi="http://sodipodi.sourceforge.net/DTD/sodipodi-0.dtd"
   xmlns:inkscape="http://www.inkscape.org/namespaces/inkscape"
   width="256"
   height="64"
   id="svg2"
   version="1.1"
   inkscape:version="0.48.5 r10040"
   sodipodi:docname="arrows.svg"
   inkscape:export-filename="/home/erethar/project/ice_insignia/content/image/arrows.png"
   inkscape:export-xdpi="90"
   inkscape:export-ydpi="90">
  <defs
     id="defs4">
    <marker
       inkscape:stockid="Arrow1Send"
       orient="auto"
       refY="0.0"
       refX="0.0"
       id="Arrow1Send"
       style="overflow:visible;">
      <path
         id="path6162"
         d="M 0.0,0.0 L 5.0,-5.0 L -12.5,0.0 L 5.0,5.0 L 0.0,0.0 z "
         style="fill-rule:evenodd;stroke:#000000;stroke-width:1.0pt;"
         transform="scale(0.2) rotate(180) translate(6,0)" />
    </marker>
    <marker
       inkscape:stockid="Arrow1Lend"
       orient="auto"
       refY="0.0"
       refX="0.0"
       id="Arrow1Lend"
       style="overflow:visible;">
      <path
         id="path6150"
         d="M 0.0,0.0 L 5.0,-5.0 L -12.5,0.0 L 5.0,5.0 L 0.0,0.0 z "
         style="fill-rule:evenodd;stroke:#000000;stroke-width:1.0pt;"
         transform="scale(0.8) rotate(180) translate(12.5,0)" />
    </marker>
  </defs>
  <sodipodi:namedview
     id="base"
     pagecolor="#ffffff"
     bordercolor="#666666"
     borderopacity="1.0"
     inkscape:pageopacity="0.0"
     inkscape:pageshadow="2"
     inkscape:zoom="5.1015625"
     inkscape:cx="128"
     inkscape:cy="32"
     inkscape:document-units="px"
     inkscape:current-layer="layer1"
     showgrid="true"
     inkscape:window-width="1918"
     inkscape:window-height="1059"
     inkscape:window-x="0"
     inkscape:window-y="19"
     inkscape:window-maximized="0"
     showguides="true"
     inkscape:guide-bbox="true">
    <inkscape:grid
       type="xygrid"
       id="grid5371"
       empspacing="8"
       visible="true"
       enabled="true"
       snapvisiblegridlinesonly="true"
       spacingx="4px"
       spacingy="4px" />
  </sodipodi:namedview>
  <metadata
     id="metadata7">
    <rdf:RDF>
      <cc:Work
         rdf:about="">
        <dc:format>image/svg+xml</dc:format>
        <dc:type
           rdf:resource="http://purl.org/dc/dcmitype/StillImage" />
        <dc:title></dc:title>
      </cc:Work>
    </rdf:RDF>
  </metadata>
  <g
     inkscape:label="Layer 1"
     inkscape:groupmode="layer"
     id="layer1"
     transform="translate(0,-988.36218)">
    <path
       style="fill:#ff0000;stroke:#000000;stroke-width:0.25px;stroke-linecap:butt;stroke-linejoin:miter;stroke-opacity:1"
       d="m 26,989.36218 2,0 0,3 1,0 -2,2.00001 -2,-2.00001 1,0 z"
       id="path6957"
       inkscape:connector-curvature="0" />
    <path
       inkscape:connector-curvature="0"
       id="path6971"
       d="m 58,991.36218 2,0 0,3.00001 1,0 -2,2 -2,-2 1,0 z"
       style="fill:#ff0000;stroke:#000000;stroke-width:0.25px;stroke-linecap:butt;stroke-linejoin:miter;stroke-opacity:1" />
    <path
       style="fill:#ff0000;stroke:#000000;stroke-width:0.25px;stroke-linecap:butt;stroke-linejoin:miter;stroke-opacity:1"
       d="m 90,993.36218 2,0 0,3.00001 1,0 -2,2 -2,-2 1,0 z"
       id="path6973"
       inkscape:connector-curvature="0" />
    <path
       inkscape:connector-curvature="0"
       id="path6975"
       d="m 122,995.36219 2,0 0,3 1,0 -2,2.00001 -2,-2.00001 1,0 z"
       style="fill:#ff0000;stroke:#000000;stroke-width:0.25px;stroke-linecap:butt;stroke-linejoin:miter;stroke-opacity:1" />
    <path
       style="fill:#ff0000;stroke:#000000;stroke-width:0.25px;stroke-linecap:butt;stroke-linejoin:miter;stroke-opacity:1"
       d="m 154,997.36219 2,0 0,3.00001 1,0 -2,2 -2,-2 1,0 z"
       id="path6977"
       inkscape:connector-curvature="0" />
    <path
       inkscape:connector-curvature="0"
       id="path6979"
       d="m 186,999.36219 2,0 0,3.00001 1,0 -2,2 -2,-2 1,0 z"
       style="fill:#ff0000;stroke:#000000;stroke-width:0.25px;stroke-linecap:butt;stroke-linejoin:miter;stroke-opacity:1" />
    <path
       style="fill:#ff0000;stroke:#000000;stroke-width:0.25px;stroke-linecap:butt;stroke-linejoin:miter;stroke-opacity:1"
       d="m 218,1001.3622 2,0 0,3 1,0 -2,2 -2,-2 1,0 z"
       id="path6981"
       inkscape:connector-curvature="0" />
    <path
       inkscape:connector-curvature="0"
       id="path6983"
       d="m 250,1002.3622 2,0 0,3 1,0 -2,2 -2,-2 1,0 z"
       style="fill:#ff0000;stroke:#000000;stroke-width:0.25px;stroke-linecap:butt;stroke-linejoin:miter;stroke-opacity:1" />
    <path
       inkscape:connector-curvature="0"
       id="path6985"
       d="m 26,1038.3622 2,0 0,-3 1,0 -2,-2 -2,2 1,0 z"
       style="fill:#008000;stroke:#000000;stroke-width:0.25px;stroke-linecap:butt;stroke-linejoin:miter;stroke-opacity:1" />
    <path
       style="fill:#008000;stroke:#000000;stroke-width:0.25px;stroke-linecap:butt;stroke-linejoin:miter;stroke-opacity:1"
       d="m 58,1036.3622 2,0 0,-3 1,0 -2,-2 -2,2 1,0 z"
       id="path6987"
       inkscape:connector-curvature="0" />
    <path
       inkscape:connector-curvature="0"
       id="path6989"
       d="m 90,1034.3622 2,0 0,-3 1,0 -2,-2 -2,2 1,0 z"
       style="fill:#008000;stroke:#000000;stroke-width:0.25px;stroke-linecap:butt;stroke-linejoin:miter;stroke-opacity:1" />
    <path
       style="fill:#008000;stroke:#000000;stroke-width:0.25px;stroke-linecap:butt;stroke-linejoin:miter;stroke-opacity:1"
       d="m 122,1032.3622 2,0 0,-3 1,0 -2,-2 -2,2 1,0 z"
       id="path6991"
       inkscape:connector-curvature="0" />
    <path
       inkscape:connector-curvature="0"
       id="path6993"
       d="m 154,1030.3622 2,0 0,-3 1,0 -2,-2 -2,2 1,0 z"
       style="fill:#008000;stroke:#000000;stroke-width:0.25px;stroke-linecap:butt;stroke-linejoin:miter;stroke-opacity:1" />
    <path
       style="fill:#008000;stroke:#000000;stroke-width:0.25px;stroke-linecap:butt;stroke-linejoin:miter;stroke-opacity:1"
       d="m 186,1028.3622 2,0 0,-3 1,0 -2,-2 -2,2 1,0 z"
       id="path6995"
       inkscape:connector-curvature="0" />
    <path
       inkscape:connector-curvature="0"
       id="path6997"
       d="m 218,1026.3622 2,0 0,-3 1,0 -2,-2 -2,2 1,0 z"
       style="fill:#008000;stroke:#000000;stroke-width:0.25px;stroke-linecap:butt;stroke-linejoin:miter;stroke-opacity:1" />
    <path
       style="fill:#008000;stroke:#000000;stroke-width:0.25px;stroke-linecap:butt;stroke-linejoin:miter;stroke-opacity:1"
       d="m 250,1026.3622 2,0 0,-3 1,0 -2,-2 -2,2 1,0 z"
       id="path6999"
       inkscape:connector-curvature="0" />
  </g>
</svg>
