<?xml version="1.0" encoding="UTF-8" standalone="no"?>
<!-- Created with Inkscape (http://www.inkscape.org/) -->

<svg
   xmlns:dc="http://purl.org/dc/elements/1.1/"
   xmlns:cc="http://creativecommons.org/ns#"
   xmlns:rdf="http://www.w3.org/1999/02/22-rdf-syntax-ns#"
   xmlns:svg="http://www.w3.org/2000/svg"
   xmlns="http://www.w3.org/2000/svg"
   xmlns:sodipodi="http://sodipodi.sourceforge.net/DTD/sodipodi-0.dtd"
   xmlns:inkscape="http://www.inkscape.org/namespaces/inkscape"
   width="512"
   height="64"
   id="svg2"
   version="1.1"
   inkscape:version="0.48.5 r10040"
   sodipodi:docname="overlay.svg"
   inkscape:export-filename="/home/erethar/project/ice_insignia/content/image/battle_overlay.png"
   inkscape:export-xdpi="90"
   inkscape:export-ydpi="90">
  <defs
     id="defs4">
    <clipPath
       clipPathUnits="userSpaceOnUse"
       id="clipPath3057">
      <rect
         style="opacity:0.4;fill:#00ffff;fill-opacity:1;stroke:none"
         id="rect3059"
         width="8"
         height="56.392323"
         x="-4.4408921e-16"
         y="-12.000017"
         ry="5.5423203"
         clip-path="none" />
    </clipPath>
    <clipPath
       clipPathUnits="userSpaceOnUse"
       id="clipPath3081">
      <rect
         style="opacity:0.4;fill:#00ffff;fill-opacity:1;stroke:none"
         id="rect3083"
         width="10.680595"
         height="16.045057"
         x="-1.9814682"
         y="20.014509"
         ry="0" />
    </clipPath>
  </defs>
  <sodipodi:namedview
     id="base"
     pagecolor="#ffffff"
     bordercolor="#666666"
     borderopacity="1.0"
     inkscape:pageopacity="0.0"
     inkscape:pageshadow="2"
     inkscape:zoom="2.0898438"
     inkscape:cx="228.14572"
     inkscape:cy="-5.4647476"
     inkscape:document-units="px"
     inkscape:current-layer="layer1"
     showgrid="true"
     inkscape:snap-global="false"
     inkscape:window-width="1598"
     inkscape:window-height="879"
     inkscape:window-x="0"
     inkscape:window-y="19"
     inkscape:window-maximized="0">
    <inkscape:grid
       type="xygrid"
       id="grid2985"
       empspacing="8"
       visible="true"
       enabled="true"
       snapvisiblegridlinesonly="true"
       spacingx="4px"
       spacingy="4px" />
  </sodipodi:namedview>
  <metadata
     id="metadata7">
    <rdf:RDF>
      <cc:Work
         rdf:about="">
        <dc:format>image/svg+xml</dc:format>
        <dc:type
           rdf:resource="http://purl.org/dc/dcmitype/StillImage" />
        <dc:title></dc:title>
      </cc:Work>
    </rdf:RDF>
  </metadata>
  <g
     inkscape:label="Layer 1"
     inkscape:groupmode="layer"
     id="layer1"
     transform="translate(0,-988.3622)">
    <g
       id="g3165"
       transform="matrix(0.43046721,0,0,0.43046721,233.10518,590.26013)"
       style="fill:#ffffff"
       inkscape:export-filename="/data/project/ice_insignia/resources/images/layer1-3.png"
       inkscape:export-xdpi="90"
       inkscape:export-ydpi="90">
      <path
         id="path3167"
         transform="translate(0,1020.3622)"
         d="M 6.9375,0 C 3.0994432,0 0,3.0994432 0,6.9375 l 0,18.125 C 0,28.900557 3.0994432,32 6.9375,32 l 18.125,0 C 28.900557,32 32,28.900557 32,25.0625 L 32,6.9375 C 32,3.0994432 28.900557,0 25.0625,0 L 6.9375,0 z m 1.8125,3.1875 14.5,0 c 3.070445,0 5.5625,2.4920546 5.5625,5.5625 l 0,14.5 c 0,3.070445 -2.492055,5.5625 -5.5625,5.5625 l -14.5,0 c -3.0704454,0 -5.5625,-2.492055 -5.5625,-5.5625 l 0,-14.5 c 0,-3.0704454 2.4920546,-5.5625 5.5625,-5.5625 z"
         clip-path="url(#clipPath3081)"
         style="opacity:0.40000000000000002;fill:#ffffff;fill-opacity:1;stroke:none"
         inkscape:connector-curvature="0" />
      <path
         inkscape:connector-curvature="0"
         style="opacity:0.40000000000000002;fill:#ffffff;fill-opacity:1;stroke:none"
         clip-path="url(#clipPath3081)"
         d="M 6.9375,0 C 3.0994432,0 0,3.0994432 0,6.9375 l 0,18.125 C 0,28.900557 3.0994432,32 6.9375,32 l 18.125,0 C 28.900557,32 32,28.900557 32,25.0625 L 32,6.9375 C 32,3.0994432 28.900557,0 25.0625,0 L 6.9375,0 z m 1.8125,3.1875 14.5,0 c 3.070445,0 5.5625,2.4920546 5.5625,5.5625 l 0,14.5 c 0,3.070445 -2.492055,5.5625 -5.5625,5.5625 l -14.5,0 c -3.0704454,0 -5.5625,-2.492055 -5.5625,-5.5625 l 0,-14.5 c 0,-3.0704454 2.4920546,-5.5625 5.5625,-5.5625 z"
         transform="matrix(1,0,0,-1,0,1052.3767)"
         id="path3169" />
      <path
         id="path3171"
         transform="matrix(-1,0,0,-1,31.9742,1052.425)"
         d="M 6.9375,0 C 3.0994432,0 0,3.0994432 0,6.9375 l 0,18.125 C 0,28.900557 3.0994432,32 6.9375,32 l 18.125,0 C 28.900557,32 32,28.900557 32,25.0625 L 32,6.9375 C 32,3.0994432 28.900557,0 25.0625,0 L 6.9375,0 z m 1.8125,3.1875 14.5,0 c 3.070445,0 5.5625,2.4920546 5.5625,5.5625 l 0,14.5 c 0,3.070445 -2.492055,5.5625 -5.5625,5.5625 l -14.5,0 c -3.0704454,0 -5.5625,-2.492055 -5.5625,-5.5625 l 0,-14.5 c 0,-3.0704454 2.4920546,-5.5625 5.5625,-5.5625 z"
         clip-path="url(#clipPath3081)"
         style="opacity:0.40000000000000002;fill:#ffffff;fill-opacity:1;stroke:none"
         inkscape:connector-curvature="0" />
      <path
         inkscape:connector-curvature="0"
         style="opacity:0.40000000000000002;fill:#ffffff;fill-opacity:1;stroke:none"
         clip-path="url(#clipPath3081)"
         d="M 6.9375,0 C 3.0994432,0 0,3.0994432 0,6.9375 l 0,18.125 C 0,28.900557 3.0994432,32 6.9375,32 l 18.125,0 C 28.900557,32 32,28.900557 32,25.0625 L 32,6.9375 C 32,3.0994432 28.900557,0 25.0625,0 L 6.9375,0 z m 1.8125,3.1875 14.5,0 c 3.070445,0 5.5625,2.4920546 5.5625,5.5625 l 0,14.5 c 0,3.070445 -2.492055,5.5625 -5.5625,5.5625 l -14.5,0 c -3.0704454,0 -5.5625,-2.492055 -5.5625,-5.5625 l 0,-14.5 c 0,-3.0704454 2.4920546,-5.5625 5.5625,-5.5625 z"
         transform="matrix(-1,0,0,1,31.9742,1020.4105)"
         id="path3173" />
    </g>
    <g
       transform="matrix(0.4782969,0,0,0.4782969,264.34052,540.68975)"
       id="g3175"
       style="fill:#ffffff"
       inkscape:export-filename="/data/project/ice_insignia/resources/images/layer1-3.png"
       inkscape:export-xdpi="90"
       inkscape:export-ydpi="90">
      <path
         inkscape:connector-curvature="0"
         style="opacity:0.40000000000000002;fill:#ffffff;fill-opacity:1;stroke:none"
         clip-path="url(#clipPath3081)"
         d="M 6.9375,0 C 3.0994432,0 0,3.0994432 0,6.9375 l 0,18.125 C 0,28.900557 3.0994432,32 6.9375,32 l 18.125,0 C 28.900557,32 32,28.900557 32,25.0625 L 32,6.9375 C 32,3.0994432 28.900557,0 25.0625,0 L 6.9375,0 z m 1.8125,3.1875 14.5,0 c 3.070445,0 5.5625,2.4920546 5.5625,5.5625 l 0,14.5 c 0,3.070445 -2.492055,5.5625 -5.5625,5.5625 l -14.5,0 c -3.0704454,0 -5.5625,-2.492055 -5.5625,-5.5625 l 0,-14.5 c 0,-3.0704454 2.4920546,-5.5625 5.5625,-5.5625 z"
         transform="translate(0,1020.3622)"
         id="path3177" />
      <path
         id="path3179"
         transform="matrix(1,0,0,-1,0,1052.3767)"
         d="M 6.9375,0 C 3.0994432,0 0,3.0994432 0,6.9375 l 0,18.125 C 0,28.900557 3.0994432,32 6.9375,32 l 18.125,0 C 28.900557,32 32,28.900557 32,25.0625 L 32,6.9375 C 32,3.0994432 28.900557,0 25.0625,0 L 6.9375,0 z m 1.8125,3.1875 14.5,0 c 3.070445,0 5.5625,2.4920546 5.5625,5.5625 l 0,14.5 c 0,3.070445 -2.492055,5.5625 -5.5625,5.5625 l -14.5,0 c -3.0704454,0 -5.5625,-2.492055 -5.5625,-5.5625 l 0,-14.5 c 0,-3.0704454 2.4920546,-5.5625 5.5625,-5.5625 z"
         clip-path="url(#clipPath3081)"
         style="opacity:0.40000000000000002;fill:#ffffff;fill-opacity:1;stroke:none"
         inkscape:connector-curvature="0" />
      <path
         inkscape:connector-curvature="0"
         style="opacity:0.40000000000000002;fill:#ffffff;fill-opacity:1;stroke:none"
         clip-path="url(#clipPath3081)"
         d="M 6.9375,0 C 3.0994432,0 0,3.0994432 0,6.9375 l 0,18.125 C 0,28.900557 3.0994432,32 6.9375,32 l 18.125,0 C 28.900557,32 32,28.900557 32,25.0625 L 32,6.9375 C 32,3.0994432 28.900557,0 25.0625,0 L 6.9375,0 z m 1.8125,3.1875 14.5,0 c 3.070445,0 5.5625,2.4920546 5.5625,5.5625 l 0,14.5 c 0,3.070445 -2.492055,5.5625 -5.5625,5.5625 l -14.5,0 c -3.0704454,0 -5.5625,-2.492055 -5.5625,-5.5625 l 0,-14.5 c 0,-3.0704454 2.4920546,-5.5625 5.5625,-5.5625 z"
         transform="matrix(-1,0,0,-1,31.9742,1052.425)"
         id="path3181" />
      <path
         id="path3183"
         transform="matrix(-1,0,0,1,31.9742,1020.4105)"
         d="M 6.9375,0 C 3.0994432,0 0,3.0994432 0,6.9375 l 0,18.125 C 0,28.900557 3.0994432,32 6.9375,32 l 18.125,0 C 28.900557,32 32,28.900557 32,25.0625 L 32,6.9375 C 32,3.0994432 28.900557,0 25.0625,0 L 6.9375,0 z m 1.8125,3.1875 14.5,0 c 3.070445,0 5.5625,2.4920546 5.5625,5.5625 l 0,14.5 c 0,3.070445 -2.492055,5.5625 -5.5625,5.5625 l -14.5,0 c -3.0704454,0 -5.5625,-2.492055 -5.5625,-5.5625 l 0,-14.5 c 0,-3.0704454 2.4920546,-5.5625 5.5625,-5.5625 z"
         clip-path="url(#clipPath3081)"
         style="opacity:0.40000000000000002;fill:#ffffff;fill-opacity:1;stroke:none"
         inkscape:connector-curvature="0" />
    </g>
    <g
       id="g3185"
       transform="matrix(0.531441,0,0,0.531441,295.4909,485.61154)"
       style="fill:#ffffff"
       inkscape:export-filename="/data/project/ice_insignia/resources/images/layer1-3.png"
       inkscape:export-xdpi="90"
       inkscape:export-ydpi="90">
      <path
         id="path3187"
         transform="translate(0,1020.3622)"
         d="M 6.9375,0 C 3.0994432,0 0,3.0994432 0,6.9375 l 0,18.125 C 0,28.900557 3.0994432,32 6.9375,32 l 18.125,0 C 28.900557,32 32,28.900557 32,25.0625 L 32,6.9375 C 32,3.0994432 28.900557,0 25.0625,0 L 6.9375,0 z m 1.8125,3.1875 14.5,0 c 3.070445,0 5.5625,2.4920546 5.5625,5.5625 l 0,14.5 c 0,3.070445 -2.492055,5.5625 -5.5625,5.5625 l -14.5,0 c -3.0704454,0 -5.5625,-2.492055 -5.5625,-5.5625 l 0,-14.5 c 0,-3.0704454 2.4920546,-5.5625 5.5625,-5.5625 z"
         clip-path="url(#clipPath3081)"
         style="opacity:0.40000000000000002;fill:#ffffff;fill-opacity:1;stroke:none"
         inkscape:connector-curvature="0" />
      <path
         inkscape:connector-curvature="0"
         style="opacity:0.40000000000000002;fill:#ffffff;fill-opacity:1;stroke:none"
         clip-path="url(#clipPath3081)"
         d="M 6.9375,0 C 3.0994432,0 0,3.0994432 0,6.9375 l 0,18.125 C 0,28.900557 3.0994432,32 6.9375,32 l 18.125,0 C 28.900557,32 32,28.900557 32,25.0625 L 32,6.9375 C 32,3.0994432 28.900557,0 25.0625,0 L 6.9375,0 z m 1.8125,3.1875 14.5,0 c 3.070445,0 5.5625,2.4920546 5.5625,5.5625 l 0,14.5 c 0,3.070445 -2.492055,5.5625 -5.5625,5.5625 l -14.5,0 c -3.0704454,0 -5.5625,-2.492055 -5.5625,-5.5625 l 0,-14.5 c 0,-3.0704454 2.4920546,-5.5625 5.5625,-5.5625 z"
         transform="matrix(1,0,0,-1,0,1052.3767)"
         id="path3189" />
      <path
         id="path3191"
         transform="matrix(-1,0,0,-1,31.9742,1052.425)"
         d="M 6.9375,0 C 3.0994432,0 0,3.0994432 0,6.9375 l 0,18.125 C 0,28.900557 3.0994432,32 6.9375,32 l 18.125,0 C 28.900557,32 32,28.900557 32,25.0625 L 32,6.9375 C 32,3.0994432 28.900557,0 25.0625,0 L 6.9375,0 z m 1.8125,3.1875 14.5,0 c 3.070445,0 5.5625,2.4920546 5.5625,5.5625 l 0,14.5 c 0,3.070445 -2.492055,5.5625 -5.5625,5.5625 l -14.5,0 c -3.0704454,0 -5.5625,-2.492055 -5.5625,-5.5625 l 0,-14.5 c 0,-3.0704454 2.4920546,-5.5625 5.5625,-5.5625 z"
         clip-path="url(#clipPath3081)"
         style="opacity:0.40000000000000002;fill:#ffffff;fill-opacity:1;stroke:none"
         inkscape:connector-curvature="0" />
      <path
         inkscape:connector-curvature="0"
         style="opacity:0.40000000000000002;fill:#ffffff;fill-opacity:1;stroke:none"
         clip-path="url(#clipPath3081)"
         d="M 6.9375,0 C 3.0994432,0 0,3.0994432 0,6.9375 l 0,18.125 C 0,28.900557 3.0994432,32 6.9375,32 l 18.125,0 C 28.900557,32 32,28.900557 32,25.0625 L 32,6.9375 C 32,3.0994432 28.900557,0 25.0625,0 L 6.9375,0 z m 1.8125,3.1875 14.5,0 c 3.070445,0 5.5625,2.4920546 5.5625,5.5625 l 0,14.5 c 0,3.070445 -2.492055,5.5625 -5.5625,5.5625 l -14.5,0 c -3.0704454,0 -5.5625,-2.492055 -5.5625,-5.5625 l 0,-14.5 c 0,-3.0704454 2.4920546,-5.5625 5.5625,-5.5625 z"
         transform="matrix(-1,0,0,1,31.9742,1020.4105)"
         id="path3193" />
    </g>
    <g
       transform="matrix(0.59049,0,0,0.59049,326.54688,424.41353)"
       id="g3195"
       style="fill:#ffffff"
       inkscape:export-filename="/data/project/ice_insignia/resources/images/layer1-3.png"
       inkscape:export-xdpi="90"
       inkscape:export-ydpi="90">
      <path
         inkscape:connector-curvature="0"
         style="opacity:0.40000000000000002;fill:#ffffff;fill-opacity:1;stroke:none"
         clip-path="url(#clipPath3081)"
         d="M 6.9375,0 C 3.0994432,0 0,3.0994432 0,6.9375 l 0,18.125 C 0,28.900557 3.0994432,32 6.9375,32 l 18.125,0 C 28.900557,32 32,28.900557 32,25.0625 L 32,6.9375 C 32,3.0994432 28.900557,0 25.0625,0 L 6.9375,0 z m 1.8125,3.1875 14.5,0 c 3.070445,0 5.5625,2.4920546 5.5625,5.5625 l 0,14.5 c 0,3.070445 -2.492055,5.5625 -5.5625,5.5625 l -14.5,0 c -3.0704454,0 -5.5625,-2.492055 -5.5625,-5.5625 l 0,-14.5 c 0,-3.0704454 2.4920546,-5.5625 5.5625,-5.5625 z"
         transform="translate(0,1020.3622)"
         id="path3197" />
      <path
         id="path3199"
         transform="matrix(1,0,0,-1,0,1052.3767)"
         d="M 6.9375,0 C 3.0994432,0 0,3.0994432 0,6.9375 l 0,18.125 C 0,28.900557 3.0994432,32 6.9375,32 l 18.125,0 C 28.900557,32 32,28.900557 32,25.0625 L 32,6.9375 C 32,3.0994432 28.900557,0 25.0625,0 L 6.9375,0 z m 1.8125,3.1875 14.5,0 c 3.070445,0 5.5625,2.4920546 5.5625,5.5625 l 0,14.5 c 0,3.070445 -2.492055,5.5625 -5.5625,5.5625 l -14.5,0 c -3.0704454,0 -5.5625,-2.492055 -5.5625,-5.5625 l 0,-14.5 c 0,-3.0704454 2.4920546,-5.5625 5.5625,-5.5625 z"
         clip-path="url(#clipPath3081)"
         style="opacity:0.40000000000000002;fill:#ffffff;fill-opacity:1;stroke:none"
         inkscape:connector-curvature="0" />
      <path
         inkscape:connector-curvature="0"
         style="opacity:0.40000000000000002;fill:#ffffff;fill-opacity:1;stroke:none"
         clip-path="url(#clipPath3081)"
         d="M 6.9375,0 C 3.0994432,0 0,3.0994432 0,6.9375 l 0,18.125 C 0,28.900557 3.0994432,32 6.9375,32 l 18.125,0 C 28.900557,32 32,28.900557 32,25.0625 L 32,6.9375 C 32,3.0994432 28.900557,0 25.0625,0 L 6.9375,0 z m 1.8125,3.1875 14.5,0 c 3.070445,0 5.5625,2.4920546 5.5625,5.5625 l 0,14.5 c 0,3.070445 -2.492055,5.5625 -5.5625,5.5625 l -14.5,0 c -3.0704454,0 -5.5625,-2.492055 -5.5625,-5.5625 l 0,-14.5 c 0,-3.0704454 2.4920546,-5.5625 5.5625,-5.5625 z"
         transform="matrix(-1,0,0,-1,31.9742,1052.425)"
         id="path3201" />
      <path
         id="path3203"
         transform="matrix(-1,0,0,1,31.9742,1020.4105)"
         d="M 6.9375,0 C 3.0994432,0 0,3.0994432 0,6.9375 l 0,18.125 C 0,28.900557 3.0994432,32 6.9375,32 l 18.125,0 C 28.900557,32 32,28.900557 32,25.0625 L 32,6.9375 C 32,3.0994432 28.900557,0 25.0625,0 L 6.9375,0 z m 1.8125,3.1875 14.5,0 c 3.070445,0 5.5625,2.4920546 5.5625,5.5625 l 0,14.5 c 0,3.070445 -2.492055,5.5625 -5.5625,5.5625 l -14.5,0 c -3.0704454,0 -5.5625,-2.492055 -5.5625,-5.5625 l 0,-14.5 c 0,-3.0704454 2.4920546,-5.5625 5.5625,-5.5625 z"
         clip-path="url(#clipPath3081)"
         style="opacity:0.40000000000000002;fill:#ffffff;fill-opacity:1;stroke:none"
         inkscape:connector-curvature="0" />
    </g>
    <g
       id="g3205"
       transform="matrix(0.6561,0,0,0.6561,357.49797,356.41575)"
       style="fill:#ffffff"
       inkscape:export-filename="/data/project/ice_insignia/resources/images/layer1-3.png"
       inkscape:export-xdpi="90"
       inkscape:export-ydpi="90">
      <path
         id="path3207"
         transform="translate(0,1020.3622)"
         d="M 6.9375,0 C 3.0994432,0 0,3.0994432 0,6.9375 l 0,18.125 C 0,28.900557 3.0994432,32 6.9375,32 l 18.125,0 C 28.900557,32 32,28.900557 32,25.0625 L 32,6.9375 C 32,3.0994432 28.900557,0 25.0625,0 L 6.9375,0 z m 1.8125,3.1875 14.5,0 c 3.070445,0 5.5625,2.4920546 5.5625,5.5625 l 0,14.5 c 0,3.070445 -2.492055,5.5625 -5.5625,5.5625 l -14.5,0 c -3.0704454,0 -5.5625,-2.492055 -5.5625,-5.5625 l 0,-14.5 c 0,-3.0704454 2.4920546,-5.5625 5.5625,-5.5625 z"
         clip-path="url(#clipPath3081)"
         style="opacity:0.40000000000000002;fill:#ffffff;fill-opacity:1;stroke:none"
         inkscape:connector-curvature="0" />
      <path
         inkscape:connector-curvature="0"
         style="opacity:0.40000000000000002;fill:#ffffff;fill-opacity:1;stroke:none"
         clip-path="url(#clipPath3081)"
         d="M 6.9375,0 C 3.0994432,0 0,3.0994432 0,6.9375 l 0,18.125 C 0,28.900557 3.0994432,32 6.9375,32 l 18.125,0 C 28.900557,32 32,28.900557 32,25.0625 L 32,6.9375 C 32,3.0994432 28.900557,0 25.0625,0 L 6.9375,0 z m 1.8125,3.1875 14.5,0 c 3.070445,0 5.5625,2.4920546 5.5625,5.5625 l 0,14.5 c 0,3.070445 -2.492055,5.5625 -5.5625,5.5625 l -14.5,0 c -3.0704454,0 -5.5625,-2.492055 -5.5625,-5.5625 l 0,-14.5 c 0,-3.0704454 2.4920546,-5.5625 5.5625,-5.5625 z"
         transform="matrix(1,0,0,-1,0,1052.3767)"
         id="path3209" />
      <path
         id="path3211"
         transform="matrix(-1,0,0,-1,31.9742,1052.425)"
         d="M 6.9375,0 C 3.0994432,0 0,3.0994432 0,6.9375 l 0,18.125 C 0,28.900557 3.0994432,32 6.9375,32 l 18.125,0 C 28.900557,32 32,28.900557 32,25.0625 L 32,6.9375 C 32,3.0994432 28.900557,0 25.0625,0 L 6.9375,0 z m 1.8125,3.1875 14.5,0 c 3.070445,0 5.5625,2.4920546 5.5625,5.5625 l 0,14.5 c 0,3.070445 -2.492055,5.5625 -5.5625,5.5625 l -14.5,0 c -3.0704454,0 -5.5625,-2.492055 -5.5625,-5.5625 l 0,-14.5 c 0,-3.0704454 2.4920546,-5.5625 5.5625,-5.5625 z"
         clip-path="url(#clipPath3081)"
         style="opacity:0.40000000000000002;fill:#ffffff;fill-opacity:1;stroke:none"
         inkscape:connector-curvature="0" />
      <path
         inkscape:connector-curvature="0"
         style="opacity:0.40000000000000002;fill:#ffffff;fill-opacity:1;stroke:none"
         clip-path="url(#clipPath3081)"
         d="M 6.9375,0 C 3.0994432,0 0,3.0994432 0,6.9375 l 0,18.125 C 0,28.900557 3.0994432,32 6.9375,32 l 18.125,0 C 28.900557,32 32,28.900557 32,25.0625 L 32,6.9375 C 32,3.0994432 28.900557,0 25.0625,0 L 6.9375,0 z m 1.8125,3.1875 14.5,0 c 3.070445,0 5.5625,2.4920546 5.5625,5.5625 l 0,14.5 c 0,3.070445 -2.492055,5.5625 -5.5625,5.5625 l -14.5,0 c -3.0704454,0 -5.5625,-2.492055 -5.5625,-5.5625 l 0,-14.5 c 0,-3.0704454 2.4920546,-5.5625 5.5625,-5.5625 z"
         transform="matrix(-1,0,0,1,31.9742,1020.4105)"
         id="path3213" />
    </g>
    <g
       transform="matrix(0.729,0,0,0.729,388.33251,280.86266)"
       id="g3215"
       style="fill:#ffffff"
       inkscape:export-filename="/data/project/ice_insignia/resources/images/layer1-3.png"
       inkscape:export-xdpi="90"
       inkscape:export-ydpi="90">
      <path
         inkscape:connector-curvature="0"
         style="opacity:0.40000000000000002;fill:#ffffff;fill-opacity:1;stroke:none"
         clip-path="url(#clipPath3081)"
         d="M 6.9375,0 C 3.0994432,0 0,3.0994432 0,6.9375 l 0,18.125 C 0,28.900557 3.0994432,32 6.9375,32 l 18.125,0 C 28.900557,32 32,28.900557 32,25.0625 L 32,6.9375 C 32,3.0994432 28.900557,0 25.0625,0 L 6.9375,0 z m 1.8125,3.1875 14.5,0 c 3.070445,0 5.5625,2.4920546 5.5625,5.5625 l 0,14.5 c 0,3.070445 -2.492055,5.5625 -5.5625,5.5625 l -14.5,0 c -3.0704454,0 -5.5625,-2.492055 -5.5625,-5.5625 l 0,-14.5 c 0,-3.0704454 2.4920546,-5.5625 5.5625,-5.5625 z"
         transform="translate(0,1020.3622)"
         id="path3217" />
      <path
         id="path3219"
         transform="matrix(1,0,0,-1,0,1052.3767)"
         d="M 6.9375,0 C 3.0994432,0 0,3.0994432 0,6.9375 l 0,18.125 C 0,28.900557 3.0994432,32 6.9375,32 l 18.125,0 C 28.900557,32 32,28.900557 32,25.0625 L 32,6.9375 C 32,3.0994432 28.900557,0 25.0625,0 L 6.9375,0 z m 1.8125,3.1875 14.5,0 c 3.070445,0 5.5625,2.4920546 5.5625,5.5625 l 0,14.5 c 0,3.070445 -2.492055,5.5625 -5.5625,5.5625 l -14.5,0 c -3.0704454,0 -5.5625,-2.492055 -5.5625,-5.5625 l 0,-14.5 c 0,-3.0704454 2.4920546,-5.5625 5.5625,-5.5625 z"
         clip-path="url(#clipPath3081)"
         style="opacity:0.40000000000000002;fill:#ffffff;fill-opacity:1;stroke:none"
         inkscape:connector-curvature="0" />
      <path
         inkscape:connector-curvature="0"
         style="opacity:0.40000000000000002;fill:#ffffff;fill-opacity:1;stroke:none"
         clip-path="url(#clipPath3081)"
         d="M 6.9375,0 C 3.0994432,0 0,3.0994432 0,6.9375 l 0,18.125 C 0,28.900557 3.0994432,32 6.9375,32 l 18.125,0 C 28.900557,32 32,28.900557 32,25.0625 L 32,6.9375 C 32,3.0994432 28.900557,0 25.0625,0 L 6.9375,0 z m 1.8125,3.1875 14.5,0 c 3.070445,0 5.5625,2.4920546 5.5625,5.5625 l 0,14.5 c 0,3.070445 -2.492055,5.5625 -5.5625,5.5625 l -14.5,0 c -3.0704454,0 -5.5625,-2.492055 -5.5625,-5.5625 l 0,-14.5 c 0,-3.0704454 2.4920546,-5.5625 5.5625,-5.5625 z"
         transform="matrix(-1,0,0,-1,31.9742,1052.425)"
         id="path3221" />
      <path
         id="path3223"
         transform="matrix(-1,0,0,1,31.9742,1020.4105)"
         d="M 6.9375,0 C 3.0994432,0 0,3.0994432 0,6.9375 l 0,18.125 C 0,28.900557 3.0994432,32 6.9375,32 l 18.125,0 C 28.900557,32 32,28.900557 32,25.0625 L 32,6.9375 C 32,3.0994432 28.900557,0 25.0625,0 L 6.9375,0 z m 1.8125,3.1875 14.5,0 c 3.070445,0 5.5625,2.4920546 5.5625,5.5625 l 0,14.5 c 0,3.070445 -2.492055,5.5625 -5.5625,5.5625 l -14.5,0 c -3.0704454,0 -5.5625,-2.492055 -5.5625,-5.5625 l 0,-14.5 c 0,-3.0704454 2.4920546,-5.5625 5.5625,-5.5625 z"
         clip-path="url(#clipPath3081)"
         style="opacity:0.40000000000000002;fill:#ffffff;fill-opacity:1;stroke:none"
         inkscape:connector-curvature="0" />
    </g>
    <g
       id="g3225"
       transform="matrix(0.81,0,0,0.81,419.03755,196.91478)"
       style="fill:#ffffff"
       inkscape:export-filename="/data/project/ice_insignia/resources/images/layer1-3.png"
       inkscape:export-xdpi="90"
       inkscape:export-ydpi="90">
      <path
         id="path3227"
         transform="translate(0,1020.3622)"
         d="M 6.9375,0 C 3.0994432,0 0,3.0994432 0,6.9375 l 0,18.125 C 0,28.900557 3.0994432,32 6.9375,32 l 18.125,0 C 28.900557,32 32,28.900557 32,25.0625 L 32,6.9375 C 32,3.0994432 28.900557,0 25.0625,0 L 6.9375,0 z m 1.8125,3.1875 14.5,0 c 3.070445,0 5.5625,2.4920546 5.5625,5.5625 l 0,14.5 c 0,3.070445 -2.492055,5.5625 -5.5625,5.5625 l -14.5,0 c -3.0704454,0 -5.5625,-2.492055 -5.5625,-5.5625 l 0,-14.5 c 0,-3.0704454 2.4920546,-5.5625 5.5625,-5.5625 z"
         clip-path="url(#clipPath3081)"
         style="opacity:0.40000000000000002;fill:#ffffff;fill-opacity:1;stroke:none"
         inkscape:connector-curvature="0" />
      <path
         inkscape:connector-curvature="0"
         style="opacity:0.40000000000000002;fill:#ffffff;fill-opacity:1;stroke:none"
         clip-path="url(#clipPath3081)"
         d="M 6.9375,0 C 3.0994432,0 0,3.0994432 0,6.9375 l 0,18.125 C 0,28.900557 3.0994432,32 6.9375,32 l 18.125,0 C 28.900557,32 32,28.900557 32,25.0625 L 32,6.9375 C 32,3.0994432 28.900557,0 25.0625,0 L 6.9375,0 z m 1.8125,3.1875 14.5,0 c 3.070445,0 5.5625,2.4920546 5.5625,5.5625 l 0,14.5 c 0,3.070445 -2.492055,5.5625 -5.5625,5.5625 l -14.5,0 c -3.0704454,0 -5.5625,-2.492055 -5.5625,-5.5625 l 0,-14.5 c 0,-3.0704454 2.4920546,-5.5625 5.5625,-5.5625 z"
         transform="matrix(1,0,0,-1,0,1052.3767)"
         id="path3229" />
      <path
         id="path3231"
         transform="matrix(-1,0,0,-1,31.9742,1052.425)"
         d="M 6.9375,0 C 3.0994432,0 0,3.0994432 0,6.9375 l 0,18.125 C 0,28.900557 3.0994432,32 6.9375,32 l 18.125,0 C 28.900557,32 32,28.900557 32,25.0625 L 32,6.9375 C 32,3.0994432 28.900557,0 25.0625,0 L 6.9375,0 z m 1.8125,3.1875 14.5,0 c 3.070445,0 5.5625,2.4920546 5.5625,5.5625 l 0,14.5 c 0,3.070445 -2.492055,5.5625 -5.5625,5.5625 l -14.5,0 c -3.0704454,0 -5.5625,-2.492055 -5.5625,-5.5625 l 0,-14.5 c 0,-3.0704454 2.4920546,-5.5625 5.5625,-5.5625 z"
         clip-path="url(#clipPath3081)"
         style="opacity:0.40000000000000002;fill:#ffffff;fill-opacity:1;stroke:none"
         inkscape:connector-curvature="0" />
      <path
         inkscape:connector-curvature="0"
         style="opacity:0.40000000000000002;fill:#ffffff;fill-opacity:1;stroke:none"
         clip-path="url(#clipPath3081)"
         d="M 6.9375,0 C 3.0994432,0 0,3.0994432 0,6.9375 l 0,18.125 C 0,28.900557 3.0994432,32 6.9375,32 l 18.125,0 C 28.900557,32 32,28.900557 32,25.0625 L 32,6.9375 C 32,3.0994432 28.900557,0 25.0625,0 L 6.9375,0 z m 1.8125,3.1875 14.5,0 c 3.070445,0 5.5625,2.4920546 5.5625,5.5625 l 0,14.5 c 0,3.070445 -2.492055,5.5625 -5.5625,5.5625 l -14.5,0 c -3.0704454,0 -5.5625,-2.492055 -5.5625,-5.5625 l 0,-14.5 c 0,-3.0704454 2.4920546,-5.5625 5.5625,-5.5625 z"
         transform="matrix(-1,0,0,1,31.9742,1020.4105)"
         id="path3233" />
    </g>
    <g
       transform="matrix(0.9,0,0,0.9,449.59871,103.63936)"
       id="g3235"
       style="fill:#ffffff"
       inkscape:export-filename="/data/project/ice_insignia/resources/images/layer1-3.png"
       inkscape:export-xdpi="90"
       inkscape:export-ydpi="90">
      <path
         inkscape:connector-curvature="0"
         style="opacity:0.40000000000000002;fill:#ffffff;fill-opacity:1;stroke:none"
         clip-path="url(#clipPath3081)"
         d="M 6.9375,0 C 3.0994432,0 0,3.0994432 0,6.9375 l 0,18.125 C 0,28.900557 3.0994432,32 6.9375,32 l 18.125,0 C 28.900557,32 32,28.900557 32,25.0625 L 32,6.9375 C 32,3.0994432 28.900557,0 25.0625,0 L 6.9375,0 z m 1.8125,3.1875 14.5,0 c 3.070445,0 5.5625,2.4920546 5.5625,5.5625 l 0,14.5 c 0,3.070445 -2.492055,5.5625 -5.5625,5.5625 l -14.5,0 c -3.0704454,0 -5.5625,-2.492055 -5.5625,-5.5625 l 0,-14.5 c 0,-3.0704454 2.4920546,-5.5625 5.5625,-5.5625 z"
         transform="translate(0,1020.3622)"
         id="path3237" />
      <path
         id="path3239"
         transform="matrix(1,0,0,-1,0,1052.3767)"
         d="M 6.9375,0 C 3.0994432,0 0,3.0994432 0,6.9375 l 0,18.125 C 0,28.900557 3.0994432,32 6.9375,32 l 18.125,0 C 28.900557,32 32,28.900557 32,25.0625 L 32,6.9375 C 32,3.0994432 28.900557,0 25.0625,0 L 6.9375,0 z m 1.8125,3.1875 14.5,0 c 3.070445,0 5.5625,2.4920546 5.5625,5.5625 l 0,14.5 c 0,3.070445 -2.492055,5.5625 -5.5625,5.5625 l -14.5,0 c -3.0704454,0 -5.5625,-2.492055 -5.5625,-5.5625 l 0,-14.5 c 0,-3.0704454 2.4920546,-5.5625 5.5625,-5.5625 z"
         clip-path="url(#clipPath3081)"
         style="opacity:0.40000000000000002;fill:#ffffff;fill-opacity:1;stroke:none"
         inkscape:connector-curvature="0" />
      <path
         inkscape:connector-curvature="0"
         style="opacity:0.40000000000000002;fill:#ffffff;fill-opacity:1;stroke:none"
         clip-path="url(#clipPath3081)"
         d="M 6.9375,0 C 3.0994432,0 0,3.0994432 0,6.9375 l 0,18.125 C 0,28.900557 3.0994432,32 6.9375,32 l 18.125,0 C 28.900557,32 32,28.900557 32,25.0625 L 32,6.9375 C 32,3.0994432 28.900557,0 25.0625,0 L 6.9375,0 z m 1.8125,3.1875 14.5,0 c 3.070445,0 5.5625,2.4920546 5.5625,5.5625 l 0,14.5 c 0,3.070445 -2.492055,5.5625 -5.5625,5.5625 l -14.5,0 c -3.0704454,0 -5.5625,-2.492055 -5.5625,-5.5625 l 0,-14.5 c 0,-3.0704454 2.4920546,-5.5625 5.5625,-5.5625 z"
         transform="matrix(-1,0,0,-1,31.9742,1052.425)"
         id="path3241" />
      <path
         id="path3243"
         transform="matrix(-1,0,0,1,31.9742,1020.4105)"
         d="M 6.9375,0 C 3.0994432,0 0,3.0994432 0,6.9375 l 0,18.125 C 0,28.900557 3.0994432,32 6.9375,32 l 18.125,0 C 28.900557,32 32,28.900557 32,25.0625 L 32,6.9375 C 32,3.0994432 28.900557,0 25.0625,0 L 6.9375,0 z m 1.8125,3.1875 14.5,0 c 3.070445,0 5.5625,2.4920546 5.5625,5.5625 l 0,14.5 c 0,3.070445 -2.492055,5.5625 -5.5625,5.5625 l -14.5,0 c -3.0704454,0 -5.5625,-2.492055 -5.5625,-5.5625 l 0,-14.5 c 0,-3.0704454 2.4920546,-5.5625 5.5625,-5.5625 z"
         clip-path="url(#clipPath3081)"
         style="opacity:0.40000000000000002;fill:#ffffff;fill-opacity:1;stroke:none"
         inkscape:connector-curvature="0" />
    </g>
    <g
       id="g3245"
       transform="translate(480,0)"
       style="fill:#ffffff"
       inkscape:export-filename="/data/project/ice_insignia/resources/images/layer1-3.png"
       inkscape:export-xdpi="90"
       inkscape:export-ydpi="90">
      <path
         id="path3247"
         transform="translate(0,1020.3622)"
         d="M 6.9375,0 C 3.0994432,0 0,3.0994432 0,6.9375 l 0,18.125 C 0,28.900557 3.0994432,32 6.9375,32 l 18.125,0 C 28.900557,32 32,28.900557 32,25.0625 L 32,6.9375 C 32,3.0994432 28.900557,0 25.0625,0 L 6.9375,0 z m 1.8125,3.1875 14.5,0 c 3.070445,0 5.5625,2.4920546 5.5625,5.5625 l 0,14.5 c 0,3.070445 -2.492055,5.5625 -5.5625,5.5625 l -14.5,0 c -3.0704454,0 -5.5625,-2.492055 -5.5625,-5.5625 l 0,-14.5 c 0,-3.0704454 2.4920546,-5.5625 5.5625,-5.5625 z"
         clip-path="url(#clipPath3081)"
         style="opacity:0.40000000000000002;fill:#ffffff;fill-opacity:1;stroke:none"
         inkscape:connector-curvature="0" />
      <path
         inkscape:connector-curvature="0"
         style="opacity:0.40000000000000002;fill:#ffffff;fill-opacity:1;stroke:none"
         clip-path="url(#clipPath3081)"
         d="M 6.9375,0 C 3.0994432,0 0,3.0994432 0,6.9375 l 0,18.125 C 0,28.900557 3.0994432,32 6.9375,32 l 18.125,0 C 28.900557,32 32,28.900557 32,25.0625 L 32,6.9375 C 32,3.0994432 28.900557,0 25.0625,0 L 6.9375,0 z m 1.8125,3.1875 14.5,0 c 3.070445,0 5.5625,2.4920546 5.5625,5.5625 l 0,14.5 c 0,3.070445 -2.492055,5.5625 -5.5625,5.5625 l -14.5,0 c -3.0704454,0 -5.5625,-2.492055 -5.5625,-5.5625 l 0,-14.5 c 0,-3.0704454 2.4920546,-5.5625 5.5625,-5.5625 z"
         transform="matrix(1,0,0,-1,0,1052.3767)"
         id="path3249" />
      <path
         id="path3251"
         transform="matrix(-1,0,0,-1,31.9742,1052.425)"
         d="M 6.9375,0 C 3.0994432,0 0,3.0994432 0,6.9375 l 0,18.125 C 0,28.900557 3.0994432,32 6.9375,32 l 18.125,0 C 28.900557,32 32,28.900557 32,25.0625 L 32,6.9375 C 32,3.0994432 28.900557,0 25.0625,0 L 6.9375,0 z m 1.8125,3.1875 14.5,0 c 3.070445,0 5.5625,2.4920546 5.5625,5.5625 l 0,14.5 c 0,3.070445 -2.492055,5.5625 -5.5625,5.5625 l -14.5,0 c -3.0704454,0 -5.5625,-2.492055 -5.5625,-5.5625 l 0,-14.5 c 0,-3.0704454 2.4920546,-5.5625 5.5625,-5.5625 z"
         clip-path="url(#clipPath3081)"
         style="opacity:0.40000000000000002;fill:#ffffff;fill-opacity:1;stroke:none"
         inkscape:connector-curvature="0" />
      <path
         inkscape:connector-curvature="0"
         style="opacity:0.40000000000000002;fill:#ffffff;fill-opacity:1;stroke:none"
         clip-path="url(#clipPath3081)"
         d="M 6.9375,0 C 3.0994432,0 0,3.0994432 0,6.9375 l 0,18.125 C 0,28.900557 3.0994432,32 6.9375,32 l 18.125,0 C 28.900557,32 32,28.900557 32,25.0625 L 32,6.9375 C 32,3.0994432 28.900557,0 25.0625,0 L 6.9375,0 z m 1.8125,3.1875 14.5,0 c 3.070445,0 5.5625,2.4920546 5.5625,5.5625 l 0,14.5 c 0,3.070445 -2.492055,5.5625 -5.5625,5.5625 l -14.5,0 c -3.0704454,0 -5.5625,-2.492055 -5.5625,-5.5625 l 0,-14.5 c 0,-3.0704454 2.4920546,-5.5625 5.5625,-5.5625 z"
         transform="matrix(-1,0,0,1,31.9742,1020.4105)"
         id="path3253" />
    </g>
    <g
       transform="matrix(-0.531441,0,0,0.531441,216.9419,485.61154)"
       id="g3375"
       style="fill:#ffffff"
       inkscape:export-filename="/data/project/ice_insignia/resources/images/layer1-3.png"
       inkscape:export-xdpi="90"
       inkscape:export-ydpi="90">
      <path
         inkscape:connector-curvature="0"
         style="opacity:0.40000000000000002;fill:#ffffff;fill-opacity:1;stroke:none"
         clip-path="url(#clipPath3081)"
         d="M 6.9375,0 C 3.0994432,0 0,3.0994432 0,6.9375 l 0,18.125 C 0,28.900557 3.0994432,32 6.9375,32 l 18.125,0 C 28.900557,32 32,28.900557 32,25.0625 L 32,6.9375 C 32,3.0994432 28.900557,0 25.0625,0 L 6.9375,0 z m 1.8125,3.1875 14.5,0 c 3.070445,0 5.5625,2.4920546 5.5625,5.5625 l 0,14.5 c 0,3.070445 -2.492055,5.5625 -5.5625,5.5625 l -14.5,0 c -3.0704454,0 -5.5625,-2.492055 -5.5625,-5.5625 l 0,-14.5 c 0,-3.0704454 2.4920546,-5.5625 5.5625,-5.5625 z"
         transform="translate(0,1020.3622)"
         id="path3377" />
      <path
         id="path3379"
         transform="matrix(1,0,0,-1,0,1052.3767)"
         d="M 6.9375,0 C 3.0994432,0 0,3.0994432 0,6.9375 l 0,18.125 C 0,28.900557 3.0994432,32 6.9375,32 l 18.125,0 C 28.900557,32 32,28.900557 32,25.0625 L 32,6.9375 C 32,3.0994432 28.900557,0 25.0625,0 L 6.9375,0 z m 1.8125,3.1875 14.5,0 c 3.070445,0 5.5625,2.4920546 5.5625,5.5625 l 0,14.5 c 0,3.070445 -2.492055,5.5625 -5.5625,5.5625 l -14.5,0 c -3.0704454,0 -5.5625,-2.492055 -5.5625,-5.5625 l 0,-14.5 c 0,-3.0704454 2.4920546,-5.5625 5.5625,-5.5625 z"
         clip-path="url(#clipPath3081)"
         style="opacity:0.40000000000000002;fill:#ffffff;fill-opacity:1;stroke:none"
         inkscape:connector-curvature="0" />
      <path
         inkscape:connector-curvature="0"
         style="opacity:0.40000000000000002;fill:#ffffff;fill-opacity:1;stroke:none"
         clip-path="url(#clipPath3081)"
         d="M 6.9375,0 C 3.0994432,0 0,3.0994432 0,6.9375 l 0,18.125 C 0,28.900557 3.0994432,32 6.9375,32 l 18.125,0 C 28.900557,32 32,28.900557 32,25.0625 L 32,6.9375 C 32,3.0994432 28.900557,0 25.0625,0 L 6.9375,0 z m 1.8125,3.1875 14.5,0 c 3.070445,0 5.5625,2.4920546 5.5625,5.5625 l 0,14.5 c 0,3.070445 -2.492055,5.5625 -5.5625,5.5625 l -14.5,0 c -3.0704454,0 -5.5625,-2.492055 -5.5625,-5.5625 l 0,-14.5 c 0,-3.0704454 2.4920546,-5.5625 5.5625,-5.5625 z"
         transform="matrix(-1,0,0,-1,31.9742,1052.425)"
         id="path3381" />
      <path
         id="path3383"
         transform="matrix(-1,0,0,1,31.9742,1020.4105)"
         d="M 6.9375,0 C 3.0994432,0 0,3.0994432 0,6.9375 l 0,18.125 C 0,28.900557 3.0994432,32 6.9375,32 l 18.125,0 C 28.900557,32 32,28.900557 32,25.0625 L 32,6.9375 C 32,3.0994432 28.900557,0 25.0625,0 L 6.9375,0 z m 1.8125,3.1875 14.5,0 c 3.070445,0 5.5625,2.4920546 5.5625,5.5625 l 0,14.5 c 0,3.070445 -2.492055,5.5625 -5.5625,5.5625 l -14.5,0 c -3.0704454,0 -5.5625,-2.492055 -5.5625,-5.5625 l 0,-14.5 c 0,-3.0704454 2.4920546,-5.5625 5.5625,-5.5625 z"
         clip-path="url(#clipPath3081)"
         style="opacity:0.40000000000000002;fill:#ffffff;fill-opacity:1;stroke:none"
         inkscape:connector-curvature="0" />
    </g>
    <g
       id="g3385"
       transform="matrix(-0.59049,0,0,0.59049,185.88592,424.41353)"
       style="fill:#ffffff"
       inkscape:export-filename="/data/project/ice_insignia/resources/images/layer1-3.png"
       inkscape:export-xdpi="90"
       inkscape:export-ydpi="90">
      <path
         id="path3387"
         transform="translate(0,1020.3622)"
         d="M 6.9375,0 C 3.0994432,0 0,3.0994432 0,6.9375 l 0,18.125 C 0,28.900557 3.0994432,32 6.9375,32 l 18.125,0 C 28.900557,32 32,28.900557 32,25.0625 L 32,6.9375 C 32,3.0994432 28.900557,0 25.0625,0 L 6.9375,0 z m 1.8125,3.1875 14.5,0 c 3.070445,0 5.5625,2.4920546 5.5625,5.5625 l 0,14.5 c 0,3.070445 -2.492055,5.5625 -5.5625,5.5625 l -14.5,0 c -3.0704454,0 -5.5625,-2.492055 -5.5625,-5.5625 l 0,-14.5 c 0,-3.0704454 2.4920546,-5.5625 5.5625,-5.5625 z"
         clip-path="url(#clipPath3081)"
         style="opacity:0.40000000000000002;fill:#ffffff;fill-opacity:1;stroke:none"
         inkscape:connector-curvature="0" />
      <path
         inkscape:connector-curvature="0"
         style="opacity:0.40000000000000002;fill:#ffffff;fill-opacity:1;stroke:none"
         clip-path="url(#clipPath3081)"
         d="M 6.9375,0 C 3.0994432,0 0,3.0994432 0,6.9375 l 0,18.125 C 0,28.900557 3.0994432,32 6.9375,32 l 18.125,0 C 28.900557,32 32,28.900557 32,25.0625 L 32,6.9375 C 32,3.0994432 28.900557,0 25.0625,0 L 6.9375,0 z m 1.8125,3.1875 14.5,0 c 3.070445,0 5.5625,2.4920546 5.5625,5.5625 l 0,14.5 c 0,3.070445 -2.492055,5.5625 -5.5625,5.5625 l -14.5,0 c -3.0704454,0 -5.5625,-2.492055 -5.5625,-5.5625 l 0,-14.5 c 0,-3.0704454 2.4920546,-5.5625 5.5625,-5.5625 z"
         transform="matrix(1,0,0,-1,0,1052.3767)"
         id="path3389" />
      <path
         id="path3391"
         transform="matrix(-1,0,0,-1,31.9742,1052.425)"
         d="M 6.9375,0 C 3.0994432,0 0,3.0994432 0,6.9375 l 0,18.125 C 0,28.900557 3.0994432,32 6.9375,32 l 18.125,0 C 28.900557,32 32,28.900557 32,25.0625 L 32,6.9375 C 32,3.0994432 28.900557,0 25.0625,0 L 6.9375,0 z m 1.8125,3.1875 14.5,0 c 3.070445,0 5.5625,2.4920546 5.5625,5.5625 l 0,14.5 c 0,3.070445 -2.492055,5.5625 -5.5625,5.5625 l -14.5,0 c -3.0704454,0 -5.5625,-2.492055 -5.5625,-5.5625 l 0,-14.5 c 0,-3.0704454 2.4920546,-5.5625 5.5625,-5.5625 z"
         clip-path="url(#clipPath3081)"
         style="opacity:0.40000000000000002;fill:#ffffff;fill-opacity:1;stroke:none"
         inkscape:connector-curvature="0" />
      <path
         inkscape:connector-curvature="0"
         style="opacity:0.40000000000000002;fill:#ffffff;fill-opacity:1;stroke:none"
         clip-path="url(#clipPath3081)"
         d="M 6.9375,0 C 3.0994432,0 0,3.0994432 0,6.9375 l 0,18.125 C 0,28.900557 3.0994432,32 6.9375,32 l 18.125,0 C 28.900557,32 32,28.900557 32,25.0625 L 32,6.9375 C 32,3.0994432 28.900557,0 25.0625,0 L 6.9375,0 z m 1.8125,3.1875 14.5,0 c 3.070445,0 5.5625,2.4920546 5.5625,5.5625 l 0,14.5 c 0,3.070445 -2.492055,5.5625 -5.5625,5.5625 l -14.5,0 c -3.0704454,0 -5.5625,-2.492055 -5.5625,-5.5625 l 0,-14.5 c 0,-3.0704454 2.4920546,-5.5625 5.5625,-5.5625 z"
         transform="matrix(-1,0,0,1,31.9742,1020.4105)"
         id="path3393" />
    </g>
    <g
       transform="matrix(-0.6561,0,0,0.6561,154.93483,356.41575)"
       id="g3395"
       style="fill:#ffffff"
       inkscape:export-filename="/data/project/ice_insignia/resources/images/layer1-3.png"
       inkscape:export-xdpi="90"
       inkscape:export-ydpi="90">
      <path
         inkscape:connector-curvature="0"
         style="opacity:0.40000000000000002;fill:#ffffff;fill-opacity:1;stroke:none"
         clip-path="url(#clipPath3081)"
         d="M 6.9375,0 C 3.0994432,0 0,3.0994432 0,6.9375 l 0,18.125 C 0,28.900557 3.0994432,32 6.9375,32 l 18.125,0 C 28.900557,32 32,28.900557 32,25.0625 L 32,6.9375 C 32,3.0994432 28.900557,0 25.0625,0 L 6.9375,0 z m 1.8125,3.1875 14.5,0 c 3.070445,0 5.5625,2.4920546 5.5625,5.5625 l 0,14.5 c 0,3.070445 -2.492055,5.5625 -5.5625,5.5625 l -14.5,0 c -3.0704454,0 -5.5625,-2.492055 -5.5625,-5.5625 l 0,-14.5 c 0,-3.0704454 2.4920546,-5.5625 5.5625,-5.5625 z"
         transform="translate(0,1020.3622)"
         id="path3397" />
      <path
         id="path3399"
         transform="matrix(1,0,0,-1,0,1052.3767)"
         d="M 6.9375,0 C 3.0994432,0 0,3.0994432 0,6.9375 l 0,18.125 C 0,28.900557 3.0994432,32 6.9375,32 l 18.125,0 C 28.900557,32 32,28.900557 32,25.0625 L 32,6.9375 C 32,3.0994432 28.900557,0 25.0625,0 L 6.9375,0 z m 1.8125,3.1875 14.5,0 c 3.070445,0 5.5625,2.4920546 5.5625,5.5625 l 0,14.5 c 0,3.070445 -2.492055,5.5625 -5.5625,5.5625 l -14.5,0 c -3.0704454,0 -5.5625,-2.492055 -5.5625,-5.5625 l 0,-14.5 c 0,-3.0704454 2.4920546,-5.5625 5.5625,-5.5625 z"
         clip-path="url(#clipPath3081)"
         style="opacity:0.40000000000000002;fill:#ffffff;fill-opacity:1;stroke:none"
         inkscape:connector-curvature="0" />
      <path
         inkscape:connector-curvature="0"
         style="opacity:0.40000000000000002;fill:#ffffff;fill-opacity:1;stroke:none"
         clip-path="url(#clipPath3081)"
         d="M 6.9375,0 C 3.0994432,0 0,3.0994432 0,6.9375 l 0,18.125 C 0,28.900557 3.0994432,32 6.9375,32 l 18.125,0 C 28.900557,32 32,28.900557 32,25.0625 L 32,6.9375 C 32,3.0994432 28.900557,0 25.0625,0 L 6.9375,0 z m 1.8125,3.1875 14.5,0 c 3.070445,0 5.5625,2.4920546 5.5625,5.5625 l 0,14.5 c 0,3.070445 -2.492055,5.5625 -5.5625,5.5625 l -14.5,0 c -3.0704454,0 -5.5625,-2.492055 -5.5625,-5.5625 l 0,-14.5 c 0,-3.0704454 2.4920546,-5.5625 5.5625,-5.5625 z"
         transform="matrix(-1,0,0,-1,31.9742,1052.425)"
         id="path3401" />
      <path
         id="path3403"
         transform="matrix(-1,0,0,1,31.9742,1020.4105)"
         d="M 6.9375,0 C 3.0994432,0 0,3.0994432 0,6.9375 l 0,18.125 C 0,28.900557 3.0994432,32 6.9375,32 l 18.125,0 C 28.900557,32 32,28.900557 32,25.0625 L 32,6.9375 C 32,3.0994432 28.900557,0 25.0625,0 L 6.9375,0 z m 1.8125,3.1875 14.5,0 c 3.070445,0 5.5625,2.4920546 5.5625,5.5625 l 0,14.5 c 0,3.070445 -2.492055,5.5625 -5.5625,5.5625 l -14.5,0 c -3.0704454,0 -5.5625,-2.492055 -5.5625,-5.5625 l 0,-14.5 c 0,-3.0704454 2.4920546,-5.5625 5.5625,-5.5625 z"
         clip-path="url(#clipPath3081)"
         style="opacity:0.40000000000000002;fill:#ffffff;fill-opacity:1;stroke:none"
         inkscape:connector-curvature="0" />
    </g>
    <g
       id="g3405"
       transform="matrix(-0.729,0,0,0.729,124.10029,280.86266)"
       style="fill:#ffffff"
       inkscape:export-filename="/data/project/ice_insignia/resources/images/layer1-3.png"
       inkscape:export-xdpi="90"
       inkscape:export-ydpi="90">
      <path
         id="path3407"
         transform="translate(0,1020.3622)"
         d="M 6.9375,0 C 3.0994432,0 0,3.0994432 0,6.9375 l 0,18.125 C 0,28.900557 3.0994432,32 6.9375,32 l 18.125,0 C 28.900557,32 32,28.900557 32,25.0625 L 32,6.9375 C 32,3.0994432 28.900557,0 25.0625,0 L 6.9375,0 z m 1.8125,3.1875 14.5,0 c 3.070445,0 5.5625,2.4920546 5.5625,5.5625 l 0,14.5 c 0,3.070445 -2.492055,5.5625 -5.5625,5.5625 l -14.5,0 c -3.0704454,0 -5.5625,-2.492055 -5.5625,-5.5625 l 0,-14.5 c 0,-3.0704454 2.4920546,-5.5625 5.5625,-5.5625 z"
         clip-path="url(#clipPath3081)"
         style="opacity:0.40000000000000002;fill:#ffffff;fill-opacity:1;stroke:none"
         inkscape:connector-curvature="0" />
      <path
         inkscape:connector-curvature="0"
         style="opacity:0.40000000000000002;fill:#ffffff;fill-opacity:1;stroke:none"
         clip-path="url(#clipPath3081)"
         d="M 6.9375,0 C 3.0994432,0 0,3.0994432 0,6.9375 l 0,18.125 C 0,28.900557 3.0994432,32 6.9375,32 l 18.125,0 C 28.900557,32 32,28.900557 32,25.0625 L 32,6.9375 C 32,3.0994432 28.900557,0 25.0625,0 L 6.9375,0 z m 1.8125,3.1875 14.5,0 c 3.070445,0 5.5625,2.4920546 5.5625,5.5625 l 0,14.5 c 0,3.070445 -2.492055,5.5625 -5.5625,5.5625 l -14.5,0 c -3.0704454,0 -5.5625,-2.492055 -5.5625,-5.5625 l 0,-14.5 c 0,-3.0704454 2.4920546,-5.5625 5.5625,-5.5625 z"
         transform="matrix(1,0,0,-1,0,1052.3767)"
         id="path3409" />
      <path
         id="path3411"
         transform="matrix(-1,0,0,-1,31.9742,1052.425)"
         d="M 6.9375,0 C 3.0994432,0 0,3.0994432 0,6.9375 l 0,18.125 C 0,28.900557 3.0994432,32 6.9375,32 l 18.125,0 C 28.900557,32 32,28.900557 32,25.0625 L 32,6.9375 C 32,3.0994432 28.900557,0 25.0625,0 L 6.9375,0 z m 1.8125,3.1875 14.5,0 c 3.070445,0 5.5625,2.4920546 5.5625,5.5625 l 0,14.5 c 0,3.070445 -2.492055,5.5625 -5.5625,5.5625 l -14.5,0 c -3.0704454,0 -5.5625,-2.492055 -5.5625,-5.5625 l 0,-14.5 c 0,-3.0704454 2.4920546,-5.5625 5.5625,-5.5625 z"
         clip-path="url(#clipPath3081)"
         style="opacity:0.40000000000000002;fill:#ffffff;fill-opacity:1;stroke:none"
         inkscape:connector-curvature="0" />
      <path
         inkscape:connector-curvature="0"
         style="opacity:0.40000000000000002;fill:#ffffff;fill-opacity:1;stroke:none"
         clip-path="url(#clipPath3081)"
         d="M 6.9375,0 C 3.0994432,0 0,3.0994432 0,6.9375 l 0,18.125 C 0,28.900557 3.0994432,32 6.9375,32 l 18.125,0 C 28.900557,32 32,28.900557 32,25.0625 L 32,6.9375 C 32,3.0994432 28.900557,0 25.0625,0 L 6.9375,0 z m 1.8125,3.1875 14.5,0 c 3.070445,0 5.5625,2.4920546 5.5625,5.5625 l 0,14.5 c 0,3.070445 -2.492055,5.5625 -5.5625,5.5625 l -14.5,0 c -3.0704454,0 -5.5625,-2.492055 -5.5625,-5.5625 l 0,-14.5 c 0,-3.0704454 2.4920546,-5.5625 5.5625,-5.5625 z"
         transform="matrix(-1,0,0,1,31.9742,1020.4105)"
         id="path3413" />
    </g>
    <g
       transform="matrix(-0.81,0,0,0.81,93.395246,196.91478)"
       id="g3415"
       style="fill:#ffffff"
       inkscape:export-filename="/data/project/ice_insignia/resources/images/layer1-3.png"
       inkscape:export-xdpi="90"
       inkscape:export-ydpi="90">
      <path
         inkscape:connector-curvature="0"
         style="opacity:0.40000000000000002;fill:#ffffff;fill-opacity:1;stroke:none"
         clip-path="url(#clipPath3081)"
         d="M 6.9375,0 C 3.0994432,0 0,3.0994432 0,6.9375 l 0,18.125 C 0,28.900557 3.0994432,32 6.9375,32 l 18.125,0 C 28.900557,32 32,28.900557 32,25.0625 L 32,6.9375 C 32,3.0994432 28.900557,0 25.0625,0 L 6.9375,0 z m 1.8125,3.1875 14.5,0 c 3.070445,0 5.5625,2.4920546 5.5625,5.5625 l 0,14.5 c 0,3.070445 -2.492055,5.5625 -5.5625,5.5625 l -14.5,0 c -3.0704454,0 -5.5625,-2.492055 -5.5625,-5.5625 l 0,-14.5 c 0,-3.0704454 2.4920546,-5.5625 5.5625,-5.5625 z"
         transform="translate(0,1020.3622)"
         id="path3417" />
      <path
         id="path3419"
         transform="matrix(1,0,0,-1,0,1052.3767)"
         d="M 6.9375,0 C 3.0994432,0 0,3.0994432 0,6.9375 l 0,18.125 C 0,28.900557 3.0994432,32 6.9375,32 l 18.125,0 C 28.900557,32 32,28.900557 32,25.0625 L 32,6.9375 C 32,3.0994432 28.900557,0 25.0625,0 L 6.9375,0 z m 1.8125,3.1875 14.5,0 c 3.070445,0 5.5625,2.4920546 5.5625,5.5625 l 0,14.5 c 0,3.070445 -2.492055,5.5625 -5.5625,5.5625 l -14.5,0 c -3.0704454,0 -5.5625,-2.492055 -5.5625,-5.5625 l 0,-14.5 c 0,-3.0704454 2.4920546,-5.5625 5.5625,-5.5625 z"
         clip-path="url(#clipPath3081)"
         style="opacity:0.40000000000000002;fill:#ffffff;fill-opacity:1;stroke:none"
         inkscape:connector-curvature="0" />
      <path
         inkscape:connector-curvature="0"
         style="opacity:0.40000000000000002;fill:#ffffff;fill-opacity:1;stroke:none"
         clip-path="url(#clipPath3081)"
         d="M 6.9375,0 C 3.0994432,0 0,3.0994432 0,6.9375 l 0,18.125 C 0,28.900557 3.0994432,32 6.9375,32 l 18.125,0 C 28.900557,32 32,28.900557 32,25.0625 L 32,6.9375 C 32,3.0994432 28.900557,0 25.0625,0 L 6.9375,0 z m 1.8125,3.1875 14.5,0 c 3.070445,0 5.5625,2.4920546 5.5625,5.5625 l 0,14.5 c 0,3.070445 -2.492055,5.5625 -5.5625,5.5625 l -14.5,0 c -3.0704454,0 -5.5625,-2.492055 -5.5625,-5.5625 l 0,-14.5 c 0,-3.0704454 2.4920546,-5.5625 5.5625,-5.5625 z"
         transform="matrix(-1,0,0,-1,31.9742,1052.425)"
         id="path3421" />
      <path
         id="path3423"
         transform="matrix(-1,0,0,1,31.9742,1020.4105)"
         d="M 6.9375,0 C 3.0994432,0 0,3.0994432 0,6.9375 l 0,18.125 C 0,28.900557 3.0994432,32 6.9375,32 l 18.125,0 C 28.900557,32 32,28.900557 32,25.0625 L 32,6.9375 C 32,3.0994432 28.900557,0 25.0625,0 L 6.9375,0 z m 1.8125,3.1875 14.5,0 c 3.070445,0 5.5625,2.4920546 5.5625,5.5625 l 0,14.5 c 0,3.070445 -2.492055,5.5625 -5.5625,5.5625 l -14.5,0 c -3.0704454,0 -5.5625,-2.492055 -5.5625,-5.5625 l 0,-14.5 c 0,-3.0704454 2.4920546,-5.5625 5.5625,-5.5625 z"
         clip-path="url(#clipPath3081)"
         style="opacity:0.40000000000000002;fill:#ffffff;fill-opacity:1;stroke:none"
         inkscape:connector-curvature="0" />
    </g>
    <g
       id="g3425"
       transform="matrix(-0.9,0,0,0.9,62.834086,103.63936)"
       style="fill:#ffffff"
       inkscape:export-filename="/data/project/ice_insignia/resources/images/layer1-3.png"
       inkscape:export-xdpi="90"
       inkscape:export-ydpi="90">
      <path
         id="path3427"
         transform="translate(0,1020.3622)"
         d="M 6.9375,0 C 3.0994432,0 0,3.0994432 0,6.9375 l 0,18.125 C 0,28.900557 3.0994432,32 6.9375,32 l 18.125,0 C 28.900557,32 32,28.900557 32,25.0625 L 32,6.9375 C 32,3.0994432 28.900557,0 25.0625,0 L 6.9375,0 z m 1.8125,3.1875 14.5,0 c 3.070445,0 5.5625,2.4920546 5.5625,5.5625 l 0,14.5 c 0,3.070445 -2.492055,5.5625 -5.5625,5.5625 l -14.5,0 c -3.0704454,0 -5.5625,-2.492055 -5.5625,-5.5625 l 0,-14.5 c 0,-3.0704454 2.4920546,-5.5625 5.5625,-5.5625 z"
         clip-path="url(#clipPath3081)"
         style="opacity:0.40000000000000002;fill:#ffffff;fill-opacity:1;stroke:none"
         inkscape:connector-curvature="0" />
      <path
         inkscape:connector-curvature="0"
         style="opacity:0.40000000000000002;fill:#ffffff;fill-opacity:1;stroke:none"
         clip-path="url(#clipPath3081)"
         d="M 6.9375,0 C 3.0994432,0 0,3.0994432 0,6.9375 l 0,18.125 C 0,28.900557 3.0994432,32 6.9375,32 l 18.125,0 C 28.900557,32 32,28.900557 32,25.0625 L 32,6.9375 C 32,3.0994432 28.900557,0 25.0625,0 L 6.9375,0 z m 1.8125,3.1875 14.5,0 c 3.070445,0 5.5625,2.4920546 5.5625,5.5625 l 0,14.5 c 0,3.070445 -2.492055,5.5625 -5.5625,5.5625 l -14.5,0 c -3.0704454,0 -5.5625,-2.492055 -5.5625,-5.5625 l 0,-14.5 c 0,-3.0704454 2.4920546,-5.5625 5.5625,-5.5625 z"
         transform="matrix(1,0,0,-1,0,1052.3767)"
         id="path3429" />
      <path
         id="path3431"
         transform="matrix(-1,0,0,-1,31.9742,1052.425)"
         d="M 6.9375,0 C 3.0994432,0 0,3.0994432 0,6.9375 l 0,18.125 C 0,28.900557 3.0994432,32 6.9375,32 l 18.125,0 C 28.900557,32 32,28.900557 32,25.0625 L 32,6.9375 C 32,3.0994432 28.900557,0 25.0625,0 L 6.9375,0 z m 1.8125,3.1875 14.5,0 c 3.070445,0 5.5625,2.4920546 5.5625,5.5625 l 0,14.5 c 0,3.070445 -2.492055,5.5625 -5.5625,5.5625 l -14.5,0 c -3.0704454,0 -5.5625,-2.492055 -5.5625,-5.5625 l 0,-14.5 c 0,-3.0704454 2.4920546,-5.5625 5.5625,-5.5625 z"
         clip-path="url(#clipPath3081)"
         style="opacity:0.40000000000000002;fill:#ffffff;fill-opacity:1;stroke:none"
         inkscape:connector-curvature="0" />
      <path
         inkscape:connector-curvature="0"
         style="opacity:0.40000000000000002;fill:#ffffff;fill-opacity:1;stroke:none"
         clip-path="url(#clipPath3081)"
         d="M 6.9375,0 C 3.0994432,0 0,3.0994432 0,6.9375 l 0,18.125 C 0,28.900557 3.0994432,32 6.9375,32 l 18.125,0 C 28.900557,32 32,28.900557 32,25.0625 L 32,6.9375 C 32,3.0994432 28.900557,0 25.0625,0 L 6.9375,0 z m 1.8125,3.1875 14.5,0 c 3.070445,0 5.5625,2.4920546 5.5625,5.5625 l 0,14.5 c 0,3.070445 -2.492055,5.5625 -5.5625,5.5625 l -14.5,0 c -3.0704454,0 -5.5625,-2.492055 -5.5625,-5.5625 l 0,-14.5 c 0,-3.0704454 2.4920546,-5.5625 5.5625,-5.5625 z"
         transform="matrix(-1,0,0,1,31.9742,1020.4105)"
         id="path3433" />
    </g>
    <g
       transform="matrix(-1,0,0,1,32.432796,0)"
       id="g3435"
       style="fill:#ffffff"
       inkscape:export-filename="/data/project/ice_insignia/resources/images/layer1-3.png"
       inkscape:export-xdpi="90"
       inkscape:export-ydpi="90">
      <path
         inkscape:connector-curvature="0"
         style="opacity:0.40000000000000002;fill:#ffffff;fill-opacity:1;stroke:none"
         clip-path="url(#clipPath3081)"
         d="M 6.9375,0 C 3.0994432,0 0,3.0994432 0,6.9375 l 0,18.125 C 0,28.900557 3.0994432,32 6.9375,32 l 18.125,0 C 28.900557,32 32,28.900557 32,25.0625 L 32,6.9375 C 32,3.0994432 28.900557,0 25.0625,0 L 6.9375,0 z m 1.8125,3.1875 14.5,0 c 3.070445,0 5.5625,2.4920546 5.5625,5.5625 l 0,14.5 c 0,3.070445 -2.492055,5.5625 -5.5625,5.5625 l -14.5,0 c -3.0704454,0 -5.5625,-2.492055 -5.5625,-5.5625 l 0,-14.5 c 0,-3.0704454 2.4920546,-5.5625 5.5625,-5.5625 z"
         transform="translate(0,1020.3622)"
         id="path3437" />
      <path
         id="path3439"
         transform="matrix(1,0,0,-1,0,1052.3767)"
         d="M 6.9375,0 C 3.0994432,0 0,3.0994432 0,6.9375 l 0,18.125 C 0,28.900557 3.0994432,32 6.9375,32 l 18.125,0 C 28.900557,32 32,28.900557 32,25.0625 L 32,6.9375 C 32,3.0994432 28.900557,0 25.0625,0 L 6.9375,0 z m 1.8125,3.1875 14.5,0 c 3.070445,0 5.5625,2.4920546 5.5625,5.5625 l 0,14.5 c 0,3.070445 -2.492055,5.5625 -5.5625,5.5625 l -14.5,0 c -3.0704454,0 -5.5625,-2.492055 -5.5625,-5.5625 l 0,-14.5 c 0,-3.0704454 2.4920546,-5.5625 5.5625,-5.5625 z"
         clip-path="url(#clipPath3081)"
         style="opacity:0.40000000000000002;fill:#ffffff;fill-opacity:1;stroke:none"
         inkscape:connector-curvature="0" />
      <path
         inkscape:connector-curvature="0"
         style="opacity:0.40000000000000002;fill:#ffffff;fill-opacity:1;stroke:none"
         clip-path="url(#clipPath3081)"
         d="M 6.9375,0 C 3.0994432,0 0,3.0994432 0,6.9375 l 0,18.125 C 0,28.900557 3.0994432,32 6.9375,32 l 18.125,0 C 28.900557,32 32,28.900557 32,25.0625 L 32,6.9375 C 32,3.0994432 28.900557,0 25.0625,0 L 6.9375,0 z m 1.8125,3.1875 14.5,0 c 3.070445,0 5.5625,2.4920546 5.5625,5.5625 l 0,14.5 c 0,3.070445 -2.492055,5.5625 -5.5625,5.5625 l -14.5,0 c -3.0704454,0 -5.5625,-2.492055 -5.5625,-5.5625 l 0,-14.5 c 0,-3.0704454 2.4920546,-5.5625 5.5625,-5.5625 z"
         transform="matrix(-1,0,0,-1,31.9742,1052.425)"
         id="path3441" />
      <path
         id="path3443"
         transform="matrix(-1,0,0,1,31.9742,1020.4105)"
         d="M 6.9375,0 C 3.0994432,0 0,3.0994432 0,6.9375 l 0,18.125 C 0,28.900557 3.0994432,32 6.9375,32 l 18.125,0 C 28.900557,32 32,28.900557 32,25.0625 L 32,6.9375 C 32,3.0994432 28.900557,0 25.0625,0 L 6.9375,0 z m 1.8125,3.1875 14.5,0 c 3.070445,0 5.5625,2.4920546 5.5625,5.5625 l 0,14.5 c 0,3.070445 -2.492055,5.5625 -5.5625,5.5625 l -14.5,0 c -3.0704454,0 -5.5625,-2.492055 -5.5625,-5.5625 l 0,-14.5 c 0,-3.0704454 2.4920546,-5.5625 5.5625,-5.5625 z"
         clip-path="url(#clipPath3081)"
         style="opacity:0.40000000000000002;fill:#ffffff;fill-opacity:1;stroke:none"
         inkscape:connector-curvature="0" />
    </g>
    <g
       transform="translate(0.0348047,-32.046241)"
       id="layer1-3"
       inkscape:label="Layer 1"
       style="fill:#ffffff"
       inkscape:export-xdpi="90"
       inkscape:export-ydpi="90">
      <rect
         ry="3.6817701"
         y="1028.7096"
         x="8.34725"
         height="15.3055"
         width="15.3055"
         id="rect2987"
         style="opacity:0.40000000000000002;fill:#ffffff;stroke:none" />
      <rect
         style="opacity:0.40000000000000002;fill:#ffffff;stroke:none"
         id="rect3003"
         width="17.006111"
         height="17.006111"
         x="39.496941"
         y="1027.8593"
         ry="4.0908556" />
      <rect
         ry="4.5453954"
         y="1026.9144"
         x="70.552155"
         height="18.895679"
         width="18.895679"
         id="rect3005"
         style="opacity:0.40000000000000002;fill:#ffffff;stroke:none" />
      <rect
         style="opacity:0.40000000000000002;fill:#ffffff;stroke:none"
         id="rect3007"
         width="20.995199"
         height="20.995199"
         x="101.5024"
         y="1025.8646"
         ry="5.0504394" />
      <rect
         ry="5.6115994"
         y="1024.6982"
         x="132.33601"
         height="23.327999"
         width="23.327999"
         id="rect3009"
         style="opacity:0.40000000000000002;fill:#ffffff;stroke:none" />
      <rect
         style="opacity:0.40000000000000002;fill:#ffffff;stroke:none"
         id="rect3011"
         width="25.92"
         height="25.92"
         x="163.04001"
         y="1023.4022"
         ry="6.2351103" />
      <rect
         ry="6.9279003"
         y="1021.9622"
         x="193.60001"
         height="28.799999"
         width="28.799999"
         id="rect3013"
         style="opacity:0.40000000000000002;fill:#ffffff;stroke:none" />
      <rect
         style="opacity:0.40000000000000002;fill:#ffffff;stroke:none"
         id="rect3015"
         width="32"
         height="32"
         x="224"
         y="1020.3622"
         ry="7.6976671" />
      <rect
         transform="scale(-1,1)"
         style="opacity:0.40000000000000002;fill:#ffffff;stroke:none"
         id="rect3055"
         width="15.3055"
         height="15.3055"
         x="-503.65274"
         y="1028.7096"
         ry="3.6817701" />
      <rect
         transform="scale(-1,1)"
         ry="4.0908556"
         y="1027.8593"
         x="-472.50305"
         height="17.006111"
         width="17.006111"
         id="rect3057"
         style="opacity:0.40000000000000002;fill:#ffffff;stroke:none" />
      <rect
         transform="scale(-1,1)"
         style="opacity:0.40000000000000002;fill:#ffffff;stroke:none"
         id="rect3059-1"
         width="18.895679"
         height="18.895679"
         x="-441.44785"
         y="1026.9144"
         ry="4.5453954" />
      <rect
         transform="scale(-1,1)"
         ry="5.0504394"
         y="1025.8646"
         x="-410.49759"
         height="20.995199"
         width="20.995199"
         id="rect3061"
         style="opacity:0.40000000000000002;fill:#ffffff;stroke:none" />
      <rect
         transform="scale(-1,1)"
         style="opacity:0.40000000000000002;fill:#ffffff;stroke:none"
         id="rect3063"
         width="23.327999"
         height="23.327999"
         x="-379.66397"
         y="1024.6982"
         ry="5.6115994" />
      <rect
         transform="scale(-1,1)"
         ry="6.2351103"
         y="1023.4022"
         x="-348.95999"
         height="25.92"
         width="25.92"
         id="rect3065"
         style="opacity:0.40000000000000002;fill:#ffffff;stroke:none" />
      <rect
         transform="scale(-1,1)"
         style="opacity:0.40000000000000002;fill:#ffffff;stroke:none"
         id="rect3067"
         width="28.799999"
         height="28.799999"
         x="-318.39999"
         y="1021.9622"
         ry="6.9279003" />
      <rect
         transform="scale(-1,1)"
         ry="7.6976671"
         y="1020.3622"
         x="-288"
         height="32"
         width="32"
         id="rect3069"
         style="opacity:0.40000000000000002;fill:#ffffff;stroke:none" />
    </g>
  </g>
</svg>
